<svg width="33" height="40" viewBox="0 0 33 40" fill="none" xmlns="http://www.w3.org/2000/svg">
<path d="M29.375 5H22.5V3.75C22.5 1.67891 20.8211 0 18.75 0H13.75C11.6789 0 10 1.67891 10 3.75V5H3.125C1.39914 5 0 6.39914 0 8.125V10.625C0 11.3154 0.559609 11.875 1.25 11.875H31.25C31.9404 11.875 32.5 11.3154 32.5 10.625V8.125C32.5 6.39914 31.1009 5 29.375 5ZM12.5 3.75C12.5 3.06094 13.0609 2.5 13.75 2.5H18.75C19.4391 2.5 20 3.06094 20 3.75V5H12.5V3.75Z" fill="#C7C7C7"/>
<path d="M29.375 5H22.5V3.75C22.5 1.67891 20.8211 0 18.75 0H13.75C11.6789 0 10 1.67891 10 3.75V5H3.125C1.39914 5 0 6.39914 0 8.125V10.625C0 11.3154 0.559609 11.875 1.25 11.875H31.25C31.9404 11.875 32.5 11.3154 32.5 10.625V8.125C32.5 6.39914 31.1009 5 29.375 5ZM12.5 3.75C12.5 3.06094 13.0609 2.5 13.75 2.5H18.75C19.4391 2.5 20 3.06094 20 3.75V5H12.5V3.75Z" fill="#C7C7C7"/>
<path d="M29.375 5H22.5V3.75C22.5 1.67891 20.8211 0 18.75 0H13.75C11.6789 0 10 1.67891 10 3.75V5H3.125C1.39914 5 0 6.39914 0 8.125V10.625C0 11.3154 0.559609 11.875 1.25 11.875H31.25C31.9404 11.875 32.5 11.3154 32.5 10.625V8.125C32.5 6.39914 31.1009 5 29.375 5ZM12.5 3.75C12.5 3.06094 13.0609 2.5 13.75 2.5H18.75C19.4391 2.5 20 3.06094 20 3.75V5H12.5V3.75Z" fill="#C7C7C7"/>
<path d="M2.37219 14.375C2.14914 14.375 1.97141 14.5614 1.98203 14.7842L3.01328 36.4281C3.10859 38.4312 4.75391 40 6.75859 40H25.7414C27.7461 40 29.3914 38.4312 29.4867 36.4281L30.518 14.7842C30.5286 14.5614 30.3509 14.375 30.1278 14.375H2.37219ZM21.25 17.5C21.25 16.8094 21.8094 16.25 22.5 16.25C23.1906 16.25 23.75 16.8094 23.75 17.5V33.75C23.75 34.4406 23.1906 35 22.5 35C21.8094 35 21.25 34.4406 21.25 33.75V17.5ZM15 17.5C15 16.8094 15.5594 16.25 16.25 16.25C16.9406 16.25 17.5 16.8094 17.5 17.5V33.75C17.5 34.4406 16.9406 35 16.25 35C15.5594 35 15 34.4406 15 33.75V17.5ZM8.75 17.5C8.75 16.8094 9.30938 16.25 10 16.25C10.6906 16.25 11.25 16.8094 11.25 17.5V33.75C11.25 34.4406 10.6906 35 10 35C9.30938 35 8.75 34.4406 8.75 33.75V17.5Z" fill="#C7C7C7"/>
<path d="M2.37219 14.375C2.14914 14.375 1.97141 14.5614 1.98203 14.7842L3.01328 36.4281C3.10859 38.4312 4.75391 40 6.75859 40H25.7414C27.7461 40 29.3914 38.4312 29.4867 36.4281L30.518 14.7842C30.5286 14.5614 30.3509 14.375 30.1278 14.375H2.37219ZM21.25 17.5C21.25 16.8094 21.8094 16.25 22.5 16.25C23.1906 16.25 23.75 16.8094 23.75 17.5V33.75C23.75 34.4406 23.1906 35 22.5 35C21.8094 35 21.25 34.4406 21.25 33.75V17.5ZM15 17.5C15 16.8094 15.5594 16.25 16.25 16.25C16.9406 16.25 17.5 16.8094 17.5 17.5V33.75C17.5 34.4406 16.9406 35 16.25 35C15.5594 35 15 34.4406 15 33.75V17.5ZM8.75 17.5C8.75 16.8094 9.30938 16.25 10 16.25C10.6906 16.25 11.25 16.8094 11.25 17.5V33.75C11.25 34.4406 10.6906 35 10 35C9.30938 35 8.75 34.4406 8.75 33.75V17.5Z" fill="#C7C7C7"/>
<path d="M2.37219 14.375C2.14914 14.375 1.97141 14.5614 1.98203 14.7842L3.01328 36.4281C3.10859 38.4312 4.75391 40 6.75859 40H25.7414C27.7461 40 29.3914 38.4312 29.4867 36.4281L30.518 14.7842C30.5286 14.5614 30.3509 14.375 30.1278 14.375H2.37219ZM21.25 17.5C21.25 16.8094 21.8094 16.25 22.5 16.25C23.1906 16.25 23.75 16.8094 23.75 17.5V33.75C23.75 34.4406 23.1906 35 22.5 35C21.8094 35 21.25 34.4406 21.25 33.75V17.5ZM15 17.5C15 16.8094 15.5594 16.25 16.25 16.25C16.9406 16.25 17.5 16.8094 17.5 17.5V33.75C17.5 34.4406 16.9406 35 16.25 35C15.5594 35 15 34.4406 15 33.75V17.5ZM8.75 17.5C8.75 16.8094 9.30938 16.25 10 16.25C10.6906 16.25 11.25 16.8094 11.25 17.5V33.75C11.25 34.4406 10.6906 35 10 35C9.30938 35 8.75 34.4406 8.75 33.75V17.5Z" fill="#C7C7C7"/>
</svg>
