<svg width="40" height="40" viewBox="0 0 40 40" fill="none" xmlns="http://www.w3.org/2000/svg">
<path d="M0 31.7133V39.9945H8.28125L32.7164 15.5592L24.4352 7.27798L0 31.7133Z" fill="#C7C7C7"/>
<path d="M0 31.7133V39.9945H8.28125L32.7164 15.5592L24.4352 7.27798L0 31.7133Z" fill="#C7C7C7"/>
<path d="M0 31.7133V39.9945H8.28125L32.7164 15.5592L24.4352 7.27798L0 31.7133Z" fill="#C7C7C7"/>
<path d="M39.0986 6.05236L33.9421 0.895938C33.0808 0.0346875 31.6785 0.0346875 30.8172 0.895938L26.776 4.93719L35.0572 13.2184L39.0985 9.17719C39.9598 8.31594 39.9598 6.91361 39.0986 6.05236Z" fill="#C7C7C7"/>
<path d="M39.0986 6.05236L33.9421 0.895938C33.0808 0.0346875 31.6785 0.0346875 30.8172 0.895938L26.776 4.93719L35.0572 13.2184L39.0985 9.17719C39.9598 8.31594 39.9598 6.91361 39.0986 6.05236Z" fill="#C7C7C7"/>
<path d="M39.0986 6.05236L33.9421 0.895938C33.0808 0.0346875 31.6785 0.0346875 30.8172 0.895938L26.776 4.93719L35.0572 13.2184L39.0985 9.17719C39.9598 8.31594 39.9598 6.91361 39.0986 6.05236Z" fill="#C7C7C7"/>
</svg>
